<?xml version="1.0" encoding="utf-8"?>
<!-- Generator: Adobe Illustrator 19.1.0, SVG Export Plug-In . SVG Version: 6.00 Build 0)  -->
<svg version="1.1" id="Layer_1" xmlns="http://www.w3.org/2000/svg" xmlns:xlink="http://www.w3.org/1999/xlink" x="0px" y="0px"
	 viewBox="0 0 468 528" style="enable-background:new 0 0 468 528;" xml:space="preserve">
<style type="text/css">
	.st0{fill:none;}
	.st1{fill:#FFFFFF;}
	.st2{fill:#231F20;}
</style>
<g>
	<path class="st0" d="M155.8,466.1c0-0.6,0.2-1.1,0.5-1.6C156,464.9,155.9,465.5,155.8,466.1z"/>
	<path class="st1" d="M386.9,19.8c1.6-1.5,3.6-2.1,5.4-1c1.2,0.7,2.2,2,2.9,3.3c5.4,10,6.1,21.1,7.3,32.1c0.3,2.8,0.6,5.8,1.5,8.5
		c2.8,8.9,2.9,18.1,3.8,27.2c1.3,14.1,2.6,28.3,3.9,42.4c0,0.4,0.1,0.9,0.1,1.3c0.1,2.3-0.8,4.2-2.4,5.1c-0.5,0.3-1.1,0.5-1.8,0.5
		c-3.2,0.2-5.3-1.5-5.6-4.9c-1.7-18.7-3.3-37.4-5-56.1c-0.2-2.2-0.6-4.4-1-6.7c-1.3-7.5-2.9-15-3.8-22.5c-1-8.2-2.6-16.1-6.1-23.6
		C385.3,23.4,385.3,21.4,386.9,19.8z"/>
	<path class="st1" d="M364.8,15.3c2.6-0.7,5,0.3,5.9,2.8c2.1,5.7,4.2,11.3,4.7,17.6c0.5,6.6,2.2,13.1,3.3,19.6
		c1.3,8.3,2.6,16.7,3.8,25c0.9,6.3,1.4,12.7,2.1,18.9c0,2.8-1.8,5-4.3,5.1c-3,0.2-5.1-1.3-5.4-4.3c-1.1-9.5-2-18.9-3.2-28.4
		c-0.5-4.2-1.4-8.3-2.1-12.4c-1.5-8.8-2.7-17.5-4.4-26.2c-0.7-3.7-2.2-7.2-3.3-10.7C360.7,18.8,361.8,16.1,364.8,15.3z"/>
	<path class="st1" d="M343.8,12.3c3,0,5,1.8,4.7,5c-0.6,6.9,2,13.3,2.9,19.9c0.2,1.6,0.6,3.2,0.5,4.8c-0.4,8,1.3,15.7,3,23.4
		c0.5,2.1,0.6,4.2,0.9,6.3c-0.1,0-0.2,0-0.3,0.1c-0.2,2.4-0.4,4.8-0.6,7.3c-0.3,2.6-2.6,4.5-5.2,4.4c-2.5-0.1-4.9-2.2-4.4-4.8
		c1.5-7.9-1.2-15.3-2.2-22.9c-0.9-6.3-1.1-12.7-1.7-19c-0.2-2.2-1-4.4-1.3-6.6c-0.5-4.3-1.1-8.7-1.2-13.1
		C338.8,13.9,340.8,12.2,343.8,12.3z"/>
	<path class="st1" d="M316.8,8.7c2.9-1.1,5.5,0.3,6.6,3.7c0.3,0.8,0.5,1.8,0.9,2.5c2,4,1.9,8,1.2,12.3c-0.5,3.6-0.8,7.7,0.5,10.9
		c3,7.5,2.6,15.2,2.9,22.8c0.2,3.5,0.1,7,0,10.5c0,3.2-2,5.3-4.9,5.3s-4.8-2-4.8-5.3c0-3.6,0-7.2,0-10.8c-0.1,0-0.2,0-0.3,0
		c0-2.1-0.1-4.1,0-6.2c0.2-3.9-0.5-7.6-1.7-11.4c-2-6-2.2-12.1-1.4-18.4c0.3-2-0.2-4-0.5-6c-0.2-1.1-0.7-2.2-1.1-3.3
		C313.3,12.2,314.3,9.6,316.8,8.7z"/>
	<path class="st1" d="M345.1,171.8c2.9,1.3,4.2,3.2,3.8,5.5c-0.6,3.3-3.7,5.1-7,3.6c-9.1-4-18.2-8.1-27.3-12.2
		c-6.6-3-13.1-6.4-19.9-8.8c-4.3-1.5-9.2-1.6-13.8-2.3c-2.7-0.4-5.3-0.8-8-1.1c-3.4-0.4-5.3-2.4-5.1-5.4c0.2-2.9,2.2-4.4,5.1-4.3
		c14.2,1.6,27.5,3.5,40,10.1C323.2,162.5,334.3,166.9,345.1,171.8z"/>
	<path class="st1" d="M288.6,12.4c0.1-3.6,1.8-5.4,4.9-5.4s4.9,1.9,4.8,5.5c-0.2,4.7,0.4,9.1,2.1,13.5c0.3,0.7,0.5,1.4,0.5,2.1
		c0.3,4.9,0.5,9.9,0.8,14.8c-0.1,0-0.3,0-0.4,0c0.5,6.9,1.1,13.8,1.3,20.7c0.1,4.1-0.4,8.2-1,12.3c-0.4,2.7-3.1,4.3-5.9,3.8
		c-2.2-0.4-4-2.6-3.7-5.2c1.7-14.7-0.9-29.3-0.8-43.9c0-1.2-0.3-2.5-0.8-3.7C288.7,22.2,288.4,17.4,288.6,12.4z"/>
	<path class="st1" d="M263.8,19.7c0.1-3.7,0.6-7.5,1.3-11.2c0.5-2.6,2.8-3.7,5.7-3.4c2.1,0.3,3.8,2.1,3.9,4.5c0,1-0.2,2-0.2,3
		c-0.2,3.4-0.3,6.8-0.4,10.1c-0.1,2.4,0,4.8,0,7.2c0,14.1-1.1,28.2,2.1,42.1c0.8,3.3-0.8,6-3.5,6.5c-2.9,0.6-5.1-1-5.9-4.5
		c-1.9-8-3-16.1-3-24.3C263.7,39.8,263.6,29.8,263.8,19.7z"/>
	<path class="st1" d="M241,4.7c2-0.8,3.9-0.6,5.4,1c0.6,0.6,1.1,1.5,1.2,2.3c0.9,4.6,1.7,9.3,2.6,13.9c-0.3,0-0.6,0.1-0.9,0.1
		c0.2,2.8,0.6,5.5,0.6,8.3c0,3.2,0.2,6.5-0.5,9.6c-1.6,7-0.1,13.9,0.2,20.9c0.2,5.9,0.1,11.8-0.1,17.8c-0.1,2.3-2.2,3.9-4.7,4
		c-2.6,0.1-4.6-1.6-4.9-4.3c-0.2-2,0.1-4.1,0.1-6.2c-0.3-6.8-0.8-13.6-0.9-20.4c-0.1-4.4,0.5-8.7,0.8-13.1c0.1-2,0.4-3.9,0.4-5.8
		c-0.1-4.5-0.1-9-0.5-13.4c-0.3-3.2-1.2-6.3-1.6-9.5C238,7.4,238.8,5.6,241,4.7z"/>
	<path class="st1" d="M215.2,6.7c0.6-2.3,2.7-2.9,5-2.6c2.3,0.2,3.5,1.7,4,3.7c0.1,0.5,0.2,1.1,0.1,1.6c-2.4,6.6-0.6,13.3-0.6,20
		c0,16.1-0.4,32.2-0.6,48.3c-0.1,3.1-2.2,5-5.2,4.9c-2.8-0.1-4.6-2-4.5-5.3c0.2-8.4,0.5-16.7,0.8-25.1c0.1,0,0.3,0,0.4,0
		C214,41.1,213.2,30,213,18.8C213,14.8,214.2,10.7,215.2,6.7z"/>
	<path class="st1" d="M187.5,48.2c0.4-6.9,1.2-13.8,1.5-20.7c0.3-6.1,0-12.2,0.1-18.3c0-3.4,2-5.2,5.3-5c2.6,0.2,4.3,2,4.4,4.9
		c0.1,3.1,0,6.1,0,9.2c0.2,0,0.3,0,0.5,0.1c-0.7,7.3-1.6,14.6-1.9,21.9c-0.3,6.2,0.4,12.4,0.3,18.6c0,5.2-0.4,10.4-0.7,15.5
		c-0.1,1.2-0.2,2.3-0.4,3.5c-0.4,3.1-2.5,4.8-5.6,4.6c-2.5-0.2-4.3-2.3-4.1-5.3c0.1-1.9,0.2-3.8,0.6-5.6
		C189.2,63.7,187,56,187.5,48.2z"/>
	<path class="st1" d="M160.3,49.9c1-10.2,0.6-20.5,3.3-30.5c0.7-2.7,0.6-5.5,0.8-8.3c0.3-3.5,2.1-5.4,5.2-5.3c3,0.1,4.8,2.2,4.5,5.7
		c-0.4,4.3-1.1,8.5-1.6,12.8c-0.4,2.7-0.7,5.5-1,8.2c-0.4,4.1-1,8.2-1.1,12.3c-0.1,6.1,0.3,12.2,0.4,18.3c0.1,3.8,0,7.6-0.1,11.3
		c-0.1,2.7-2.3,4.7-5,4.7s-4.6-2-4.7-4.8c0-0.4,0-0.7,0-1.1c0-1.5,0-3.1,0-4.6c0.1,0,0.1,0,0.2,0C160.8,62.5,159.7,56.1,160.3,49.9z
		"/>
	<path class="st1" d="M135.9,40c-0.5-9.9,0.5-19.6,2.5-29.2c0.6-2.9,2.8-4.3,5.6-3.8c2.6,0.5,4.4,2.7,4,5.2
		c-2.1,11.6-3.3,23.3-1.9,33c-0.5,11.4-1,20.6-1.4,29.9c-0.1,2.8-2.1,4.8-4.8,4.8c-2.9,0-4.9-1.8-4.9-4.9c0.2-6.6,0.6-13.3,0.9-19.9
		C135.9,50,136.2,45,135.9,40z"/>
	<path class="st1" d="M138.1,162.7c12.7-9,27.4-12.7,42.4-15.4c3-0.5,6-1.3,9-1.7c2.9-0.5,5.2,1.1,5.7,3.6c0.5,2.8-1,5.1-4,5.8
		c-6.8,1.5-13.8,2.5-20.6,4.3c-8.5,2.4-17,5.1-24.6,9.9c-2.8,1.8-5.8,3.1-8.8,4.6c-3.7,1.9-7.5,3.9-11.2,5.7
		c-1.3,0.6-2.6,1.1-3.2,1.4c-3.1,0-4.6-1.2-5.2-3.2c-0.7-2.2-0.2-4.4,2.1-5.6c5.1-2.7,10.2-5.3,15.3-7.9
		C135.9,163.6,137.1,163.4,138.1,162.7z"/>
	<path class="st1" d="M108.1,65.7c0.2-5.2,0.4-10.4,0.6-15.5c0-1.1,0.2-2.1,0.3-3.2c0.7-4.4,1.4-8.8,2.1-13.2c0.4-2.5,1-4.9,1.3-7.4
		c0.5-3.5,1-7.1,1.2-10.6c0.2-3.9,1.6-5.7,4.9-5.7c3.3,0,4.8,1.8,4.8,5.7c0,1.1,0,2.2,0,3.2c0.1,0,0.3,0.1,0.4,0.1
		c-0.5,2.8-1.1,5.6-1.5,8.4c-0.5,3.1-1,6.2-1.4,9.3c-0.3,2.1-0.3,4.3-0.8,6.4c-1.3,4.6-1.4,9.1-1.2,13.8c0.1,4-0.7,8-1.5,12
		c-0.4,2.3-2.8,3.6-5.5,3.3c-2.1-0.2-3.8-2.1-4-4.4C107.9,67.2,108,66.5,108.1,65.7z"/>
	<path class="st1" d="M81.5,77.5c1-9,2.8-18,2.8-27s2-17.4,4-26c0.5-2.3,0.3-4.8,0.5-7.2c0.2-3.5,2-5.1,5.3-5c2.8,0.1,4.4,2,4.4,5.3
		c0,1,0,2,0,3c0.2,0,0.4,0.1,0.5,0.1c-1.4,6.1-2.8,12.2-4.2,18.3c-0.2,1-0.6,2.1-0.7,3.2c-0.5,8.6-0.9,17.2-1.5,25.8
		c-0.3,3.8-0.9,7.5-1.6,11.2c-0.6,3-2.9,4.7-5.6,4.2C82.6,82.9,81.1,80.8,81.5,77.5z"/>
	<path class="st1" d="M51,131.9c0.7-6,1.5-12,2.1-18c0.8-8,1.4-16.1,2-24.2c0.7-8,1.3-16,4.3-23.5c3.5-8.8,4-18,4.1-27.3
		c0.1-6.4,2.4-12.1,4.7-17.8c0.5-1.3,2.5-2.1,3.8-3.1c3.7,0.6,5.8,3.2,5.2,6.4c-0.1,0.6-0.3,1.2-0.6,1.8c-2.7,6.6-3.4,13.4-3.7,20.5
		c-0.3,6.6-1.4,13.3-3.4,19.5c-3.1,9.5-4.1,19.2-4.9,29.1c-1.1,12.8-2.6,25.6-4,38.3c-0.3,2.7-3,4.5-5.7,4.1
		C52.3,137.4,50.7,135,51,131.9z"/>
	<path class="st1" d="M152.4,479.2c-1.2,1.1-3.3,2-4.9,1.8c-1.3-0.1-2.9-1.7-3.7-3c-5.4-8.6-8-18.1-8.6-28.1c-0.2-3.9,0-7.9,0-11.9
		c-0.1,0-0.2,0-0.3,0c0-3.8,0-7.6,0-11.3c0-4,1.5-5.7,4.8-5.8c3.4,0,4.9,1.8,4.9,5.9c0.1,7.1-0.1,14.2,0.3,21.3
		c0.5,8.9,2.5,17.4,7.4,25.1C153.6,475.2,154.1,477.5,152.4,479.2z"/>
	<path class="st1" d="M187.1,507.7c-1.6,2.3-4.2,2.9-6.6,1.3c-6.6-4.2-11.7-9.9-15-16.9c-2.5-5.4-4.3-11-6.5-16.5
		c-0.9-2.3-1.9-4.6-2.8-7c-0.3-0.9-0.5-1.8-0.4-2.5c0-0.6,0.2-1.1,0.5-1.6c0.7-1.5,2.3-2.5,4.5-2.5s3.8,1,4.6,3.1
		c2,5.2,3.9,10.4,5.8,15.6c2.9,8.3,7.3,15.6,14.9,20.6C188.3,502.8,188.6,505.5,187.1,507.7z"/>
	<path class="st1" d="M210.8,516c-2.4,1.9-5.3,1.8-7.1-0.8c-6.7-9.8-13.4-19.5-19.9-29.5c-2.4-3.7-0.2-7.7,4.3-8.3
		c1.3,1,3,1.8,3.9,3.2c6.5,9.5,12.8,19.1,19.2,28.6C213,511.7,212.8,514.3,210.8,516z"/>
	<path class="st1" d="M226,523.2c-4,0-4.4-0.4-4.9-4c-1.2-10.4-2.3-20.9-3.5-31.3c-0.4-3.6,1.1-6,3.9-6.3c3.3-0.4,5.4,1.5,5.8,5.2
		c1.2,10.4,2.3,20.7,3.4,31.1C231.3,522.5,230.6,523.2,226,523.2z"/>
	<path class="st1" d="M253.3,509c-0.4,2.9-2.7,4.6-5.5,4.4c-2.5-0.2-4.5-2.4-4.1-5.3c0.9-7.2,0.8-14.3,0-21.5
		c-0.3-2.9,1.5-4.9,4-5.1c3.1-0.3,5.3,1.4,5.7,4.4c0.4,3.8,0.7,7.7,1.1,11.6C254.1,501.4,253.8,505.2,253.3,509z"/>
	<path class="st1" d="M270.7,513.3c-1.7,3-3.9,5.8-6.2,8.4c-1.9,2.2-5.2,2.1-7.2,0.2c-1.8-1.7-1.9-4.7,0.2-6.8
		c6.4-6.5,8-14.6,8.3-23.2c0.1-3.1,0-6.1,0-9.2c0.1-3.3,1.6-4.9,4.7-4.9s4.9,1.7,5,5c0.1,1.9,0,3.8,0,5.7
		C275.4,497,275.1,505.6,270.7,513.3z"/>
	<path class="st1" d="M300.3,498.6c0,3.6-1.3,6.6-4,9.1c-1.1,1-2,2.3-2.9,3.5c-1.5,2.1-3.8,2.9-6.1,1.9c-2.4-1.1-3.6-3.3-2.5-5.8
		c0.9-2.1,2.7-3.7,3.9-5.7c0.8-1.4,1.8-3,1.8-4.5c0.2-7.5,0.1-14.9,0.1-22.4c0-3.8,1.5-5.5,4.7-5.5c3.3,0,5,1.9,5,5.6
		c0,4,0,8.1,0,12.1C300.3,490.8,300.4,494.7,300.3,498.6z"/>
	<path class="st1" d="M321,488.5c0,3-1.9,5.1-4.7,5.2c-3,0.1-4.9-1.9-5-5.1c-0.2-6.3-0.1-12.6-0.7-18.8c-0.3-3.7-1.5-7.3-2.5-11
		c-0.8-3.3,0.1-5.9,2.6-6.8c3-1,5.4,0.4,6.6,3.8c2.7,8,4,16.2,3.7,23.5C321,483.1,321.1,485.8,321,488.5z"/>
	<path class="st1" d="M409.4,204.1c1.3-0.5,2.4-1.5,3.4-2.5c4.7-5.2,10.1-8.9,17.5-8.8c5.7,0.1,10.4,2.7,14.3,6.6
		c7.5,7.3,11.3,16.6,13.8,26.4c6.1,23.9,5.7,47.8-2.4,71.2c-1.8,5.1-4.3,10.2-7.4,14.6c-6,8.5-14.2,12.9-25.3,10
		c-0.3,1-0.7,1.9-1,2.9c-8.5,28-22.5,52.8-42,74.6c-12.8,14.3-27.4,26.5-43.6,36.8c-2.1,1.4-2.6,2.7-2.2,5c0.8,5.2,1.4,10.5,2,15.8
		c0.3,3.4-3.8,10.4-6.8,11.7c-2.2,1-4.3,0.4-5.8-1.4c-1.4-1.7-1.6-3.6-0.3-5.5c0-0.1,0.1-0.2,0.2-0.2c4-3.2,3.1-7.4,2.5-11.6
		c-0.9-6-1.9-12.1-2.7-18.1c-0.2-1.1,0.2-2.3,0.4-3.4c0.9-4.3,2-8.5,2.6-12.8c0.5-3.6,1.8-5.3,5.1-5.3c3.1,0.1,4.7,1.9,4.7,5.6
		c0,0.7,0,1.4,0,2.7c2.2-1.5,4.1-2.8,6-4.3c33.8-25.8,56.5-59.2,67.8-100.3c0.5-1.9,0.5-3.5-0.7-5.2c-1.3-1.7-2.2-3.7-3.1-5.6
		c-1.8-3.9-0.3-8.2,3.5-10c3.5-1.7,7.8,0,9.9,3.5c2,3.3,4.1,6.6,6.7,9.3c2.6,2.7,4.9,2.4,7.8-0.1c3.9-3.4,6.1-8.1,7.8-12.8
		c4.6-12.6,6.2-25.7,5.8-39c-0.4-10.7-1.9-21.2-5.7-31.2c-1.8-4.7-3.9-9.3-7.7-12.8c-3-2.8-5.9-3-8.7,0.1c-1.9,2-3.4,4.4-4.8,6.7
		c-1,1.5-1.6,3.2-2.4,4.8c-1.8,3.5-5.1,5.3-8.3,4.5c-3.9-1-6-3.9-6-8.1c0-0.2-0.1-0.5-0.1-1"/>
	<path class="st1" d="M59.8,216.8c0.1,4.2-1.1,7.3-5.1,8.8c-3.6,1.3-7,0-8.9-3.3c-2.3-4-4.4-8.2-7.2-11.9c-3-3.8-6-3.6-9.3-0.2
		c-4.8,5-7.4,11.2-9.2,17.8c-5.7,21.1-5.5,42.2,1.3,63c1.4,4.4,3.9,8.7,6.5,12.6c3.7,5.3,7.6,5.2,11.8,0.2c1.7-2.1,3.1-4.4,4.3-6.8
		c2.2-4.1,6.3-5.9,10.1-4.1c4.1,1.9,5.5,6.4,3.3,10.7c-0.5,1-0.9,2.2-1.7,3.1c-2.9,3.1-2.4,6.5-1.3,10.2c5.6,19,13.6,36.9,24.8,53.3
		c11.7,17.1,25.9,32,42.7,44.3c0.4,0.3,0.9,0.6,1.6,1c1.9-3.7,3.7-7.3,5.5-10.9c1.4-2.8,4-4.2,6.5-3.1c2.7,1.1,3.7,4.1,2.4,7
		c-1.1,2.5-2.6,4.9-3.7,7.5c-0.7,1.7-1.3,3.6-1.1,5.3c0.4,3.6,0.1,7-0.4,10.6c-1,6.7-1.2,13.6-1.5,20.4c-0.1,2.5-1.2,4.1-3.3,5.1
		c-2,0.8-3.8,0.3-5.1-1.3c-0.7-0.8-1.3-2.1-1.3-3.1c0.1-5.8,0.3-11.7,0.8-17.5c0.1-1.8-0.1-2.9-1.7-4
		c-22.8-15.3-41.7-34.4-56.5-57.6c-9.8-15.4-17.4-31.8-22.9-49.2c-0.3-1-0.6-2-1-3.1c-10,2.6-17.8-1-23.8-8.4
		c-2.9-3.5-5.1-7.6-6.9-11.8c-7-16.5-9.1-33.8-8-51.5c0.7-12.4,2.9-24.5,7.9-35.9c3.2-7.3,7.3-13.8,14.3-18.1c7.6-4.7,15-4,22.2,1.1
		c0.8,0.6,1.8,1.1,2.3,1.9c3.2,4.6,8.1,6.2,13,8.2"/>
	<path d="M403.9,216.9c0.1,0.5,0.1,0.8,0.1,1c-0.1,4.3,2.1,7.2,6,8.1c3.2,0.8,6.5-1,8.3-4.5c0.8-1.6,1.4-3.3,2.4-4.8
		c1.5-2.3,3-4.7,4.8-6.7c2.8-3,5.6-2.9,8.7-0.1c3.8,3.5,6,8.1,7.7,12.8c3.8,10,5.3,20.5,5.7,31.2c0.5,13.3-1.2,26.4-5.8,39
		c-1.7,4.7-3.9,9.3-7.8,12.8c-2.9,2.6-5.2,2.9-7.8,0.1c-2.6-2.8-4.7-6.1-6.7-9.3c-2.1-3.5-6.4-5.2-9.9-3.5c-3.8,1.9-5.3,6.1-3.5,10
		c0.9,1.9,1.9,3.9,3.1,5.6c1.3,1.7,1.2,3.3,0.7,5.2c-11.3,41.1-33.9,74.5-67.8,100.3c-1.9,1.4-3.8,2.7-6,4.3c0-1.3,0-2,0-2.7
		c0-3.7-1.5-5.5-4.7-5.6c-3.3-0.1-4.6,1.7-5.1,5.3c-0.6,4.3-1.7,8.5-2.6,12.8c-0.2,1.1-0.5,2.3-0.4,3.4c0.8,6,1.7,12.1,2.7,18.1
		c0.7,4.2,1.5,8.4-2.5,11.6c-0.1,0.1-0.1,0.1-0.2,0.2c-1.3,1.9-1.1,3.8,0.3,5.5c1.5,1.8,3.6,2.4,5.8,1.4c3-1.3,7.2-8.3,6.8-11.7
		c-0.5-5.3-1.2-10.5-2-15.8c-0.4-2.3,0.1-3.6,2.2-5c16.2-10.3,30.8-22.5,43.6-36.8c19.4-21.8,33.5-46.7,42-74.6c0.3-1,0.7-2,1-2.9
		c11.1,2.9,19.3-1.5,25.3-10c3.1-4.4,5.6-9.5,7.4-14.6c8.1-23.4,8.5-47.2,2.4-71.2c-2.5-9.9-6.3-19.1-13.8-26.4
		c-4-3.9-8.6-6.5-14.3-6.6c-7.4-0.1-12.7,3.6-17.5,8.8c-0.9,1-2.1,2-3.4,2.5 M61,206.9c-4.8-1.9-9.8-3.6-13-8.2
		c-0.5-0.8-1.5-1.3-2.3-1.9c-7.2-5-14.6-5.7-22.2-1.1c-7,4.3-11.1,10.9-14.3,18.1c-5,11.4-7.1,23.6-7.9,35.9c-1.1,17.7,1,35,8,51.5
		c1.8,4.2,4,8.3,6.9,11.8c6,7.4,13.8,11,23.8,8.4c0.4,1.1,0.7,2.1,1,3.1c5.4,17.4,13.1,33.8,22.9,49.2
		c14.7,23.2,33.7,42.3,56.5,57.6c1.6,1.1,1.9,2.1,1.7,4c-0.4,5.8-0.6,11.7-0.8,17.5c0,1,0.6,2.3,1.3,3.1c1.3,1.6,3.2,2.2,5.1,1.3
		c2.2-0.9,3.2-2.6,3.3-5.1c0.4-6.8,0.5-13.7,1.5-20.4c0.5-3.6,0.9-7,0.4-10.6c-0.2-1.7,0.4-3.7,1.1-5.3c1-2.6,2.5-5,3.7-7.5
		c1.3-3,0.3-5.9-2.4-7c-2.5-1-5.2,0.3-6.5,3.1c-1.7,3.6-3.6,7.1-5.5,10.9c-0.7-0.5-1.2-0.7-1.6-1C104.9,402,90.8,387.1,79,370
		c-11.2-16.4-19.2-34.3-24.8-53.3c-1.1-3.7-1.6-7,1.3-10.2c0.8-0.8,1.1-2,1.7-3.1c2.2-4.3,0.8-8.8-3.3-10.7c-3.8-1.8-7.9,0-10.1,4.1
		c-1.2,2.4-2.6,4.8-4.3,6.8c-4.1,5-8.1,5.1-11.8-0.2c-2.7-3.9-5.1-8.1-6.5-12.6c-6.8-20.8-6.9-41.9-1.3-63
		c1.8-6.6,4.3-12.8,9.2-17.8c3.4-3.5,6.4-3.7,9.3,0.2c2.8,3.6,4.9,7.9,7.2,11.9c1.9,3.3,5.4,4.7,8.9,3.3c4-1.5,5.2-4.6,5.1-8.8"/>
	<path d="M201.2,350.7c1.1,0.2,1.9,0.4,2.7,0.6c9.2,2.7,18.5,3.6,28,2.2c17.1-2.5,36-11.2,44.7-26.1c5.5-9.5,6.7-19.8,4.8-30.5
		c-0.7-3.9-3.6-6.3-7.5-6.4c-3.6-0.1-6.6,2.3-7.3,6c-0.3,1.6,0,3.4,0.3,5.1c1.8,11.8-2.7,21.1-11.5,28.7
		c-13.9,12-40.6,11.1-54.2,4.1c-11.4-5.9-15.6-18-13.2-29.2c1.1-5.1,4.7-8.6,8.1-12.2c5-5.3,10.2-10.4,14.7-16.1
		c3.5-4.4,4.4-10,3.7-15.6c-0.5-4.3-3.9-6.8-8.2-6.4c-4.1,0.4-6.6,3.9-6.7,8.1c-0.1,2.4-0.9,5.1-2.1,7.2c-1.3,2.3-3.5,4.1-5.3,6.1
		c-4.6,4.8-9.7,9.2-13.6,14.5c-10.7,14.7-7,38.8,7.6,51.1c3,2.6,6.4,4.6,9.6,6.9"/>
	<path d="M392.2,48.9c0.9,7.6,2.5,15,3.8,22.5c0.4,2.2,0.8,4.4,1,6.7c1.7,18.7,3.3,37.4,5,56.1c0.3,3.4,2.4,5.1,5.6,4.9
		c0.6,0,1.2-0.2,1.8-0.5c1.6-0.9,2.5-2.7,2.4-5.1c0-0.4-0.1-0.9-0.1-1.3c-1.3-14.1-2.6-28.3-3.9-42.4c-0.8-9.1-1-18.3-3.8-27.2
		c-0.8-2.7-1.2-5.6-1.5-8.5c-1.1-11-1.9-22.1-7.3-32.1c-0.7-1.3-1.7-2.6-2.9-3.3c-1.9-1.1-3.9-0.5-5.4,1c-1.7,1.6-1.6,3.6-0.7,5.5
		C389.7,32.8,391.2,40.7,392.2,48.9z"/>
	<path d="M409.4,138.6c1.6-0.9,2.5-2.7,2.4-5.1c0-0.4-0.1-0.9-0.1-1.3c0,0.4,0.1,0.9,0.1,1.3C411.9,135.9,410.9,137.7,409.4,138.6z"
		/>
	<path d="M55,137.8c2.7,0.4,5.4-1.4,5.7-4.1c1.4-12.8,2.9-25.5,4-38.3c0.8-9.9,1.8-19.6,4.9-29.1c2-6.2,3.1-13,3.4-19.5
		c0.3-7.1,1-13.9,3.7-20.5c0.2-0.6,0.4-1.2,0.6-1.8c0.6-3.2-1.5-5.8-5.2-6.4c-1.3,1-3.3,1.8-3.8,3.1C66,26.9,63.6,32.6,63.6,39
		c-0.1,9.3-0.6,18.5-4.1,27.3c-3,7.5-3.6,15.5-4.3,23.5c-0.7,8.1-1.3,16.1-2,24.2c-0.6,6-1.4,12-2.1,18
		C50.7,135,52.3,137.4,55,137.8z"/>
	<path d="M365.2,32.9c1.7,8.7,2.9,17.5,4.4,26.2c0.7,4.2,1.6,8.3,2.1,12.4c1.2,9.5,2.1,18.9,3.2,28.4c0.4,3,2.4,4.5,5.4,4.3
		c2.4-0.2,4.3-2.3,4.3-5.1c-0.7-6.3-1.3-12.6-2.1-18.9c-1.1-8.4-2.4-16.7-3.8-25c-1.1-6.5-2.8-13-3.3-19.6
		c-0.4-6.3-2.6-11.9-4.7-17.6c-0.9-2.5-3.3-3.6-5.9-2.8c-3,0.8-4.1,3.5-3,6.9C363,25.8,364.5,29.3,365.2,32.9z"/>
	<path d="M267.8,151.1c-0.2,3,1.7,5,5.1,5.4c2.7,0.3,5.3,0.7,8,1.1c4.6,0.7,9.4,0.8,13.8,2.3c6.8,2.4,13.3,5.8,19.9,8.8
		c9.1,4.1,18.2,8.2,27.3,12.2c3.3,1.4,6.4-0.4,7-3.6c0.4-2.3-0.9-4.2-3.8-5.5c-10.8-4.9-21.8-9.3-32.3-14.9
		c-12.4-6.7-25.8-8.6-40-10.1C270,146.7,268,148.2,267.8,151.1z"/>
	<path d="M117.5,177.6c0.6,2.1,2.1,3.3,5.2,3.2c0.6-0.3,2-0.7,3.2-1.4c3.8-1.9,7.5-3.8,11.2-5.7c2.9-1.5,6-2.9,8.8-4.6
		c7.6-4.8,16.1-7.5,24.6-9.9c6.7-1.9,13.7-2.9,20.6-4.3c2.9-0.6,4.4-3,4-5.8c-0.4-2.5-2.7-4.1-5.7-3.6s-6,1.2-9,1.7
		c-15,2.7-29.6,6.5-42.4,15.4c-0.9,0.7-2.2,0.9-3.2,1.4c-5.1,2.6-10.2,5.2-15.3,7.9C117.3,173.3,116.9,175.4,117.5,177.6z"/>
	<path d="M239.9,19.2c0.4,4.5,0.4,9,0.5,13.4c0,1.9-0.2,3.9-0.4,5.8c-0.3,4.4-0.9,8.7-0.8,13.1c0.1,6.8,0.6,13.6,0.9,20.4
		c0.1,2.1-0.2,4.1-0.1,6.2c0.2,2.7,2.3,4.4,4.9,4.3c2.5-0.1,4.6-1.7,4.7-4c0.2-5.9,0.3-11.8,0.1-17.8c-0.3-7-1.8-13.9-0.2-20.9
		c0.7-3.1,0.5-6.4,0.5-9.6c0-2.8-0.4-5.5-0.6-8.3c0.3,0,0.6-0.1,0.9-0.1c-0.9-4.6-1.7-9.3-2.6-13.9c-0.2-0.8-0.7-1.7-1.2-2.3
		c-1.5-1.7-3.5-1.9-5.4-1c-2.2,0.9-3.1,2.8-2.7,5C238.8,12.9,239.7,16,239.9,19.2z"/>
	<path d="M186.9,77.2c-0.1,3,1.6,5.1,4.1,5.3c3.1,0.2,5.1-1.5,5.6-4.6c0.2-1.2,0.3-2.3,0.4-3.5c0.3-5.2,0.7-10.4,0.7-15.5
		c0-6.2-0.6-12.4-0.3-18.6c0.3-7.3,1.2-14.6,1.9-21.9c-0.2,0-0.3,0-0.5-0.1c0-3.1,0.1-6.1,0-9.2c-0.1-2.8-1.8-4.7-4.4-4.9
		c-3.3-0.2-5.2,1.5-5.3,5c-0.1,6.1,0.2,12.2-0.1,18.3c-0.3,6.9-1.1,13.8-1.5,20.7c-0.5,7.8,1.8,15.6,0.1,23.4
		C187.2,73.4,187,75.3,186.9,77.2z"/>
	<path d="M214.2,52.2c-0.3,8.4-0.6,16.7-0.8,25.1c-0.1,3.2,1.7,5.2,4.5,5.3c3,0.1,5.2-1.8,5.2-4.9c0.3-16.1,0.6-32.2,0.6-48.3
		c0-6.7-1.8-13.4,0.6-20c0.2-0.5,0.1-1.1-0.1-1.6c-0.6-2.1-1.7-3.5-4-3.7s-4.4,0.3-5,2.6c-1,4-2.2,8.1-2.2,12.1
		c0.2,11.1,1,22.2,1.6,33.4C214.5,52.2,214.4,52.2,214.2,52.2z"/>
	<path d="M266.7,74.2c0.8,3.5,3,5.1,5.9,4.5c2.7-0.6,4.3-3.2,3.5-6.5c-3.2-13.9-2-28-2.1-42.1c0-2.4-0.1-4.8,0-7.2
		c0.1-3.4,0.2-6.8,0.4-10.1c0-1,0.3-2,0.2-3c-0.1-2.4-1.7-4.2-3.9-4.5c-2.9-0.4-5.2,0.8-5.7,3.4c-0.7,3.7-1.3,7.5-1.3,11.2
		c-0.2,10-0.1,20.1-0.1,30.1C263.7,58.1,264.8,66.2,266.7,74.2z"/>
	<path d="M161,68.7c0,1.5,0,3.1,0,4.6c0,0.4,0,0.7,0,1.1c0.1,2.9,2,4.8,4.7,4.8c2.6,0,4.8-1.9,5-4.7c0.2-3.8,0.2-7.6,0.1-11.3
		c-0.1-6.1-0.5-12.2-0.4-18.3c0.1-4.1,0.7-8.2,1.1-12.3c0.3-2.8,0.6-5.5,1-8.2c0.5-4.3,1.3-8.5,1.6-12.8c0.3-3.5-1.5-5.6-4.5-5.7
		c-3.1-0.1-4.9,1.8-5.2,5.3c-0.2,2.8-0.1,5.6-0.8,8.3c-2.6,10-2.3,20.3-3.3,30.5c-0.6,6.2,0.5,12.5,0.9,18.8
		C161.1,68.7,161,68.7,161,68.7z"/>
	<path d="M134.9,75c-0.1,3.1,2,4.9,4.9,4.9c2.7,0,4.7-2,4.8-4.8c0.5-9.2,0.9-18.5,1.4-29.9c-1.4-9.6-0.2-21.3,1.9-33
		c0.5-2.6-1.3-4.8-4-5.2c-2.7-0.5-4.9,0.9-5.6,3.8c-2,9.6-3.1,19.3-2.5,29.2c0.3,5,0.1,10-0.1,15.1C135.6,61.7,135.1,68.3,134.9,75z
		"/>
	<path d="M291.3,30.6c0,14.6,2.5,29.2,0.8,43.9c-0.3,2.6,1.4,4.9,3.7,5.2c2.8,0.5,5.5-1.1,5.9-3.8c0.5-4.1,1.1-8.2,1-12.3
		c-0.2-6.9-0.9-13.8-1.3-20.7c0.1,0,0.3,0,0.4,0c-0.2-4.9-0.5-9.9-0.8-14.8c0-0.7-0.3-1.4-0.5-2.1c-1.6-4.3-2.3-8.8-2.1-13.5
		c0.2-3.6-1.7-5.5-4.8-5.5c-3.2,0-4.8,1.8-4.9,5.4c-0.2,5,0.1,9.9,1.9,14.6C291,28.1,291.3,29.4,291.3,30.6z"/>
	<path d="M341.5,36.7c0.6,6.3,0.9,12.7,1.7,19c1,7.6,3.7,15,2.2,22.9c-0.5,2.6,1.9,4.7,4.4,4.8c2.6,0.1,4.9-1.8,5.2-4.4
		c0.3-2.4,0.4-4.8,0.6-7.3c0.1,0,0.2,0,0.3-0.1c-0.3-2.1-0.4-4.3-0.9-6.3c-1.7-7.7-3.4-15.4-3-23.4c0.1-1.6-0.3-3.2-0.5-4.8
		c-0.9-6.6-3.5-13-2.9-19.9c0.3-3.2-1.7-4.9-4.7-5c-3,0-5,1.7-4.9,4.8c0.2,4.4,0.7,8.7,1.2,13.1C340.4,32.4,341.2,34.5,341.5,36.7z"
		/>
	<path d="M85.6,83.4c2.7,0.4,5-1.2,5.6-4.2c0.7-3.7,1.3-7.4,1.6-11.2c0.6-8.6,1-17.2,1.5-25.8c0.1-1.1,0.5-2.1,0.7-3.2
		c1.4-6.1,2.8-12.2,4.2-18.3c-0.2,0-0.4-0.1-0.5-0.1c0-1,0-2,0-3c0-3.3-1.6-5.2-4.4-5.3c-3.4-0.1-5.1,1.5-5.3,5
		c-0.2,2.4,0.1,4.9-0.5,7.2c-2,8.6-4,17-4,26s-1.8,18-2.8,27C81.1,80.8,82.6,82.9,85.6,83.4z"/>
	<path d="M315.4,18.8c0.3,2,0.8,4.1,0.5,6c-0.8,6.3-0.6,12.4,1.4,18.4c1.3,3.7,1.9,7.4,1.7,11.4c-0.1,2.1,0,4.1,0,6.2
		c0.1,0,0.2,0,0.3,0c0,3.6,0,7.2,0,10.8c0,3.3,1.9,5.3,4.8,5.3c2.8,0,4.8-2.1,4.9-5.3c0-3.5,0.1-7,0-10.5
		c-0.3-7.7,0.1-15.4-2.9-22.8c-1.3-3.2-1-7.4-0.5-10.9c0.7-4.3,0.7-8.3-1.2-12.3c-0.4-0.8-0.6-1.7-0.9-2.5c-1.2-3.4-3.7-4.8-6.6-3.7
		c-2.5,0.9-3.5,3.6-2.5,6.8C314.7,16.6,315.2,17.6,315.4,18.8z"/>
	<path d="M144.9,448.1c-0.4-7.1-0.2-14.2-0.3-21.3c0-4.1-1.6-6-4.9-5.9c-3.3,0-4.7,1.8-4.8,5.8c0,3.8,0,7.6,0,11.3
		c0.1,0,0.2,0,0.3,0c0,4-0.2,7.9,0,11.9c0.6,10,3.2,19.5,8.6,28.1c0.8,1.3,2.4,2.9,3.7,3c1.6,0.2,3.7-0.7,4.9-1.8
		c1.7-1.7,1.2-4-0.1-6C147.4,465.6,145.4,457,144.9,448.1z"/>
	<path d="M111.9,72.3c2.6,0.3,5-1,5.5-3.3c0.7-4,1.6-8,1.5-12c-0.2-4.7,0-9.3,1.2-13.8c0.6-2,0.5-4.3,0.8-6.4
		c0.4-3.1,0.9-6.2,1.4-9.3c0.5-2.8,1-5.6,1.5-8.4c-0.1,0-0.3-0.1-0.4-0.1c0-1.1,0-2.2,0-3.2c0-3.9-1.6-5.7-4.8-5.7
		c-3.3,0-4.7,1.8-4.9,5.7c-0.2,3.6-0.7,7.1-1.2,10.6c-0.3,2.5-0.9,4.9-1.3,7.4c-0.7,4.4-1.4,8.8-2.1,13.2c-0.2,1.1-0.3,2.1-0.3,3.2
		c-0.2,5.2-0.4,10.4-0.6,15.5c0,0.7-0.2,1.4-0.2,2.1C108,70.2,109.7,72.1,111.9,72.3z"/>
	<path d="M186,501.3c-7.6-5-12-12.2-14.9-20.6c-1.8-5.2-3.8-10.4-5.8-15.6c-0.8-2.1-2.4-3.1-4.6-3.1c-2.1,0-3.7,1-4.5,2.5
		c-0.2,0.5-0.4,1-0.5,1.6c-0.1,0.8,0.1,1.6,0.4,2.5c0.9,2.3,1.9,4.6,2.8,7c2.1,5.5,4,11.2,6.5,16.5c3.3,7.1,8.4,12.7,15,16.9
		c2.4,1.6,5,0.9,6.6-1.3C188.6,505.5,188.3,502.8,186,501.3z"/>
	<path d="M160.7,462c2.2,0,3.8,1,4.6,3.1C164.5,463,163,462,160.7,462c-2.1,0-3.7,1-4.5,2.5C157,463,158.6,462,160.7,462z"/>
	<path d="M270.5,477.8c-3.1,0-4.6,1.6-4.7,4.9c-0.1,3.1,0.1,6.1,0,9.2c-0.3,8.6-1.9,16.8-8.3,23.2c-2,2.1-1.9,5-0.2,6.8
		c2,1.9,5.3,2,7.2-0.2c2.3-2.6,4.4-5.4,6.2-8.4c4.4-7.7,4.7-16.2,4.8-24.8c0-1.9,0.1-3.8,0-5.7C275.4,479.5,273.6,477.8,270.5,477.8
		z"/>
	<path d="M295.3,469.2c-3.2,0-4.7,1.7-4.7,5.5c0,7.5,0.1,14.9-0.1,22.4c0,1.5-1,3.1-1.8,4.5c-1.2,2-3,3.6-3.9,5.7
		c-1.1,2.5,0.1,4.7,2.5,5.8c2.3,1,4.6,0.2,6.1-1.9c0.9-1.2,1.8-2.5,2.9-3.5c2.7-2.5,4-5.5,4-9.1c0-3.9,0-7.7,0-11.6
		c0-4,0-8.1,0-12.1C300.3,471.1,298.6,469.2,295.3,469.2z"/>
	<path d="M192.1,480.6c-0.9-1.3-2.6-2.1-3.9-3.2c-4.5,0.5-6.8,4.6-4.3,8.3c6.5,9.9,13.2,19.7,19.9,29.5c1.8,2.6,4.7,2.8,7.1,0.8
		c2-1.6,2.1-4.3,0.5-6.7C204.9,499.7,198.6,490,192.1,480.6z"/>
	<path d="M227.4,486.8c-0.4-3.7-2.6-5.6-5.8-5.2c-2.8,0.3-4.3,2.6-3.9,6.3c1.1,10.4,2.3,20.9,3.5,31.3c0.4,3.6,0.9,4,4.9,4
		c4.6,0,5.3-0.7,4.8-5.3C229.7,507.6,228.6,497.2,227.4,486.8z"/>
	<path d="M317.4,455.8c-1.2-3.4-3.6-4.7-6.6-3.8c-2.5,0.8-3.5,3.5-2.6,6.8c0.9,3.6,2.2,7.3,2.5,11c0.5,6.2,0.5,12.5,0.7,18.8
		c0.1,3.2,2.1,5.1,5,5.1c2.7-0.1,4.6-2.1,4.7-5.2c0-2.7,0-5.4,0-9.2C321.4,471.9,320.1,463.7,317.4,455.8z"/>
	<path d="M247.7,481.6c-2.5,0.2-4.3,2.2-4,5.1c0.8,7.2,0.9,14.3,0,21.5c-0.4,2.9,1.6,5.1,4.1,5.3c2.8,0.2,5.1-1.5,5.5-4.4
		c0.5-3.8,0.7-7.7,1.1-11.5c-0.3-3.9-0.6-7.7-1.1-11.6C253,482.9,250.8,481.3,247.7,481.6z"/>
	<path class="st1" d="M305.2,247.9"/>
	<path d="M305.2,247.9"/>
	<path d="M162.8,240.4c-0.1,6-5.3,11-11.2,10.8c-6-0.2-10.8-5.4-10.6-11.4c0.2-5.8,5.2-10.5,10.9-10.5
		C157.9,229.3,162.9,234.4,162.8,240.4z"/>
	<path d="M310.5,250.8c-6.1-0.1-10.9-5.1-10.7-11.1c0.2-6.1,5.2-10.7,11.4-10.4c5.8,0.2,10.5,5,10.5,10.8
		C321.6,246.1,316.6,250.9,310.5,250.8z"/>
	<path d="M390.6,204.9c-0.1-1.4-0.5-2.7-1.2-3.9c-2-3.4-4.9-8.5-51.9-10.5c-13.9-0.6-48.6-1.4-71.8,4c-3.5,0.8-10.9,2.6-16.9,6.5
		c-1.5,0.5-11.2,3.6-14.8,3.6c-3.6,0-13.3-3.1-14.8-3.6c-6-4-13.4-5.7-16.9-6.5c-23.2-5.4-57.9-4.6-71.8-4c-47,2-50,7.1-51.9,10.5
		c-0.7,1.2-1.1,2.5-1.2,3.9c-0.4,5.2-3.5,51,14.3,70.8c10,11.2,34.1,13.9,55.5,13.9c3.2,0,6.3-0.1,9.3-0.2
		c13.7-0.5,46.3-2.6,53.7-12.1c5.7-7.3,11.9-32.2,15.7-49.3c3.1-0.8,6.4-1.6,8.2-1.6c1.8,0,5.1,0.8,8.2,1.6
		c3.8,17.1,10,42,15.7,49.3c7.4,9.5,40,11.6,53.7,12.1c3,0.1,6.1,0.2,9.3,0.2c21.4,0,45.5-2.8,55.5-13.9
		C394.1,255.9,391,210.1,390.6,204.9z M196,265.4c-11.6,5.8-79.9,10.1-90.6-1.9c-8.4-9.4-10.5-34.2-10-51.2
		c9.4-1.7,31.9-3.9,57.1-3.8c38.6,0.2,53.4,5.5,56.8,8.2C205.2,236.8,199.1,259.7,196,265.4z M362.6,263.5
		c-10.7,12-78.9,7.7-90.6,1.9c-3.2-5.7-9.2-28.6-13.4-48.7c3.5-2.7,18.2-8,56.8-8.2c25.2-0.1,47.7,2,57.1,3.8
		C373.1,229.2,371,254,362.6,263.5z"/>
	<g>
		<path class="st1" d="M155.8,378.3c0,0,16.1,15.8,75.2,17.2c52.2,1.2,61.4-17.2,61.4-17.2"/>
		<path class="st2" d="M235.9,400c-1.6,0-3.3,0-5-0.1c-60.1-1.4-77.5-17.8-78.2-18.5c-1.8-1.7-1.8-4.5-0.1-6.3
			c1.7-1.7,4.5-1.8,6.3-0.1c0.3,0.3,16.6,14.7,72.2,16c47.8,1.1,57.3-14.7,57.4-14.8c1.2-2.1,3.9-2.9,6-1.8c2.1,1.1,3,3.7,1.9,5.9
			C295.3,382.4,285,400,235.9,400z"/>
	</g>
	<g>
		<path class="st1" d="M289,356.5c0,0,7-1,18.2,10.9c11.1,11.9,8.1,22.4,8.1,22.4"/>
		<path class="st2" d="M315.2,394.2c-0.4,0-0.8-0.1-1.2-0.2c-2.4-0.7-3.7-3.2-3-5.5c0.1-0.3,2-8.4-7-18.1c-9-9.6-14.5-9.5-14.5-9.5
			c-2.4,0.4-4.6-1.4-4.9-3.8s1.5-4.7,3.9-5c1.6-0.2,9.9-0.7,22,12.2c12.7,13.6,9.2,26.1,9.1,26.6
			C318.9,392.9,317.2,394.2,315.2,394.2z"/>
	</g>
</g>
</svg>
